<svg xmlns="http://www.w3.org/2000/svg" viewBox="0 0 338.68 100.01"><defs><style>.cls-1{fill:red;}.cls-2{isolation:isolate;}.cls-3{fill:#fff;}</style></defs><g id="Camada_2" data-name="Camada 2"><g id="Camada_1-2" data-name="Camada 1"><g id="Camada_1-2-2" data-name="Camada 1-2-2"><path class="cls-1" d="M323.91,14.77a49.83,49.83,0,1,0-70.82,70.12h0l.35.35a49.83,49.83,0,0,0,70.82-70.12h0ZM246,50a42.3,42.3,0,0,1,1.48-11.19c1.63,3.52,4,6.55,5.63,10.16,2.07,4.63,7.66,3.35,10.16,7.41,2.19,3.6-.15,8.17,1.49,11.94,1.2,2.73,4,3.33,5.95,5.33s1.94,4.79,2.24,7.43a66.27,66.27,0,0,0,1.66,9.17.11.11,0,0,0,0,.08A42.81,42.81,0,0,1,246,50Zm42.7,42.9a43.48,43.48,0,0,1-7.12-.59,10.22,10.22,0,0,1,.1-1.56,18.93,18.93,0,0,1,4.72-9.64c2.35-2.62,5.6-4.36,7.6-7.36a13.13,13.13,0,0,0,1.74-10.16c-1.19-5-8-6.66-11.62-9.38-2.11-1.55-4-4-6.74-4.16a18,18,0,0,1-3.59-.14c-1.17-.3-2.07-.92-3.3-.76-2.3.3-3.76,2.76-6.26,2.43-2.35-.32-4.76-3.06-5.3-5.3-.68-2.87,1.59-3.8,4-4.06a6.73,6.73,0,0,1,3.12.16c1.29.47,1.88,1.73,3.06,2.36,2.16,1.19,2.6-.71,2.26-2.63-.49-2.88-1.07-4,1.5-6,1.78-1.37,3.3-2.35,3-4.8-.17-1.45-1-2.1-.22-3.54a9.31,9.31,0,0,1,3.09-2.73c2.58-1.68,11-1.55,7.59-6.25-1-1.38-2.9-3.85-4.68-4.18-2.22-.42-3.2,2.06-4.76,3.15s-4.72,2.42-6.32.67c-2.16-2.36,1.43-3.12,2.23-4.77a3.23,3.23,0,0,0-.63-2.84c.8-.34,1.61-.63,2.44-.94a3.59,3.59,0,0,0,1.79.67c1.48.09,2.88-.71,4.18.31s2.5,2.5,4.38,2.86a3.7,3.7,0,0,0,4.27-2.64,8.09,8.09,0,0,0-.27-3.56A42.46,42.46,0,0,1,312.3,14.7a2,2,0,0,0-1.64.15c-1.35.63-3.26,2.23-3.42,3.81-.18,1.8,2.5,2.05,3.76,2.05,1.87,0,3.8-.84,3.19-3a6,6,0,0,0-1.21-2.5,42.94,42.94,0,0,1,4,3.12l-.06.07c-1.28,1.33-2.77,2.38-3.65,4a3.52,3.52,0,0,1-2.55,2,4.94,4.94,0,0,0-2.05.69c-1.61,1.25-.7,4.31.83,5.23a5.23,5.23,0,0,0,6.25-1c1.14-1.29,1.81-3.53,3.85-3.53a3.41,3.41,0,0,1,2.41,1c.84.88.68,1.7.86,2.79.32,2,2,.9,3.07-.09A42.63,42.63,0,0,1,328,33.67c-1.15,1.65-2.06,3.46-4.82,1.52-1.66-1.15-2.67-2.82-4.74-3.35a13,13,0,0,0-5.47.34c-2,.35-4.45.5-6,2s-2.28,3.47-3.87,5c-3.08,2.89-4.38,6-2.38,10.14A10.38,10.38,0,0,0,311,55c4.24-.28,8.65-2.74,8.53,3.42a15.34,15.34,0,0,0,1.08,5.72,22.29,22.29,0,0,1,.72,5.63,35.88,35.88,0,0,0,1.05,6.68,42.68,42.68,0,0,1-33.69,16.48Z"/><g class="cls-2"><path class="cls-3" d="M41.16,83.5H20.66q-10.5,0-15.58-4.2T0,66.36V40.24q0-8.73,5.08-13T20.66,23h20.5a3.21,3.21,0,0,1,2.31.71A3.21,3.21,0,0,1,44.18,26V36.21a3.21,3.21,0,0,1-.71,2.31,3.21,3.21,0,0,1-2.31.71H24.28a6,6,0,0,0-3.87,1.05,3.87,3.87,0,0,0-1.26,3.15v20a3.62,3.62,0,0,0,1.26,3.07,6.37,6.37,0,0,0,3.87,1H41.16a3.21,3.21,0,0,1,2.31.71,3.21,3.21,0,0,1,.71,2.31v10a3.21,3.21,0,0,1-.71,2.31A3.21,3.21,0,0,1,41.16,83.5Z"/><path class="cls-3" d="M55.35,83.5a2.58,2.58,0,0,1-3-3v-10a2.58,2.58,0,0,1,3-3h8.32V39.23H55.35A3.21,3.21,0,0,1,53,38.52a3.21,3.21,0,0,1-.71-2.31V26A3.21,3.21,0,0,1,53,23.73,3.21,3.21,0,0,1,55.35,23H91.14a3.21,3.21,0,0,1,2.31.71A3.21,3.21,0,0,1,94.16,26V36.21a3.21,3.21,0,0,1-.71,2.31,3.21,3.21,0,0,1-2.31.71H83V67.46h8.15a2.58,2.58,0,0,1,3,3v10a2.58,2.58,0,0,1-3,3Z"/><path class="cls-3" d="M120.12,83.5h-12.6a2.59,2.59,0,0,1-3-3V26a3.17,3.17,0,0,1,.72-2.31,3.18,3.18,0,0,1,2.31-.71h8.73a6.76,6.76,0,0,1,2.73.5,6.63,6.63,0,0,1,2.23,1.77l16.3,18.65V26a3.16,3.16,0,0,1,.71-2.31,3.21,3.21,0,0,1,2.31-.71h12.6a3.21,3.21,0,0,1,2.31.71,3.16,3.16,0,0,1,.71,2.31V80.48a3.16,3.16,0,0,1-.71,2.31,3.21,3.21,0,0,1-2.31.71h-12.6a3.21,3.21,0,0,1-2.31-.71,3.16,3.16,0,0,1-.71-2.31V70.14L123.14,52.76V80.48a2.58,2.58,0,0,1-3,3Z"/><path class="cls-3" d="M209.75,83.5h-39a3.21,3.21,0,0,1-2.31-.71,3.16,3.16,0,0,1-.71-2.31V26a3.16,3.16,0,0,1,.71-2.31,3.21,3.21,0,0,1,2.31-.71h39a3.21,3.21,0,0,1,2.31.71,3.21,3.21,0,0,1,.71,2.31v9.83a3.18,3.18,0,0,1-.71,2.31,3.17,3.17,0,0,1-2.31.72H186.56v6.46h16.38a2.6,2.6,0,0,1,3,3v9a2.59,2.59,0,0,1-3,3H186.56v7.22h23.19a2.59,2.59,0,0,1,3,3v9.83a2.58,2.58,0,0,1-3,3Z"/></g></g></g></g></svg>