<svg xmlns="http://www.w3.org/2000/svg" viewBox="0 0 293.69 167.76"><defs><style>.cls-1{fill:red;}.cls-2{fill:#fff;}</style></defs><g id="Camada_2" data-name="Camada 2"><g id="Camada_1-2" data-name="Camada 1"><path class="cls-1" d="M270.06,27.52a79.72,79.72,0,0,0-113.3,112.19l.56.56A79.72,79.72,0,0,0,270.62,28.08ZM145.36,83.9A68.15,68.15,0,0,1,147.74,66c2.61,5.62,6.41,10.48,9,16.25C160.06,89.66,169,87.6,173,94.1c3.51,5.77-.24,13.07,2.39,19.1,1.91,4.38,6.41,5.34,9.51,8.54s3.1,7.66,3.59,11.88a107.28,107.28,0,0,0,2.65,14.68.18.18,0,0,0,0,.12A68.48,68.48,0,0,1,145.36,83.9Zm68.33,68.33a68.93,68.93,0,0,1-11.39-.95c0-1,.06-1.87.15-2.49A30.57,30.57,0,0,1,210,133.36c3.78-4.18,9-7,12.14-11.75a21.09,21.09,0,0,0,2.78-16.26c-1.9-8-12.75-10.65-18.6-15-3.37-2.49-6.36-6.35-10.78-6.66-2-.14-3.74.3-5.75-.22-1.86-.48-3.31-1.48-5.28-1.22-3.68.48-6,4.42-10,3.89-3.76-.51-7.63-4.9-8.48-8.48-1.1-4.6,2.54-6.09,6.44-6.5a11,11,0,0,1,5,.25c2.06.76,3,2.77,4.88,3.79,3.46,1.9,4.16-1.14,3.63-4.21-.79-4.61-1.72-6.48,2.39-9.65,2.85-2.19,5.28-3.77,4.82-7.69-.27-2.31-1.53-3.35-.35-5.65.89-1.75,3.34-3.32,4.94-4.37,4.13-2.69,17.67-2.49,12.14-10-1.63-2.21-4.63-6.16-7.48-6.7-3.55-.67-5.13,3.3-7.62,5.05s-7.55,3.87-10.11,1.07c-3.46-3.77,2.28-5,3.56-7.64.58-1.23,0-2.93-1-4.54,1.28-.54,2.58-1,3.91-1.5a5.65,5.65,0,0,0,2.85,1.07c2.38.15,4.62-1.14,6.7.49,2.31,1.78,4,4,7,4.58a5.89,5.89,0,0,0,6.83-4.22,12.73,12.73,0,0,0-.42-5.69,67.88,67.88,0,0,1,37.37,11.46,3.28,3.28,0,0,0-2.62.25c-2.16,1-5.22,3.56-5.47,6.09-.29,2.88,4,3.28,6,3.28,3,0,6.09-1.35,5.11-4.85a9.63,9.63,0,0,0-1.93-4,69.18,69.18,0,0,1,6.41,5l-.1.1c-2.05,2.13-4.43,3.82-5.83,6.42A5.6,5.6,0,0,1,249,42.51a8,8,0,0,0-3.29,1.1c-2.57,2-1.11,6.9,1.34,8.37a8.39,8.39,0,0,0,10-1.66c1.81-2.07,2.89-5.65,6.16-5.65a5.49,5.49,0,0,1,3.85,1.57c1.35,1.4,1.08,2.71,1.37,4.46.51,3.12,3.25,1.43,4.92-.14a65.66,65.66,0,0,1,3.29,6.68c-1.84,2.64-3.29,5.53-7.71,2.44-2.65-1.84-4.27-4.52-7.59-5.36-2.9-.71-5.87,0-8.74.53-3.26.56-7.12.81-9.59,3.28s-3.65,5.56-6.19,7.95c-4.92,4.62-7,9.67-3.81,16.22a16.65,16.65,0,0,0,16.37,9.25c6.79-.45,13.84-4.39,13.64,5.47a25,25,0,0,0,1.73,9.15c1,3,.93,5.89,1.16,9a56.22,56.22,0,0,0,1.68,10.7A68.24,68.24,0,0,1,213.69,152.23Z"/><path class="cls-2" d="M114.17,167.76H57.32q-29.13,0-43.22-11.65T0,120.23V47.76q0-24.22,14.1-36T57.32,0h56.85c3,0,5.08.67,6.41,2s2,3.47,2,6.41V36.58q0,4.43-2,6.41t-6.41,2H67.34q-7.23,0-10.72,2.91t-3.5,8.74v55.45q0,5.84,3.5,8.51t10.72,2.68h46.83c3,0,5.08.67,6.41,2s2,3.46,2,6.4v27.73c0,3-.67,5.08-2,6.41S117.11,167.79,114.17,167.76Z"/></g></g></svg>